%FSLAX23Y23*%
%MOIN*%
G04 EasyPC Gerber Version 15.0.4 Build 3016 *
%ADD78R,0.03150X0.04724*%
%ADD77R,0.03150X0.07087*%
%ADD79R,0.07400X0.07400*%
%ADD17C,0.00100*%
%ADD23C,0.01500*%
%ADD24C,0.03200*%
%ADD21C,0.07400*%
%ADD18C,0.09461*%
X0Y0D02*
D02*
D17*
X1000Y100D02*
Y1050D01*
G75*
G03X900Y1150I-100*
G01*
X100*
G75*
G03X0Y1050J-100*
G01*
Y100*
G75*
G03X100Y0I100*
G01*
X900*
G75*
G03X1000Y100J100*
G01*
D02*
D18*
X101Y99D03*
Y1049D03*
X901Y99D03*
Y1049D03*
D02*
D21*
X450Y120D03*
X550Y130D03*
X650Y120D03*
D02*
D23*
X350Y130D02*
Y820D01*
X375Y910D02*
X350Y885D01*
Y820*
X400Y655D02*
Y820D01*
X450Y120D02*
Y650D01*
X500Y700*
Y820*
X450Y730D02*
Y820D01*
X550Y130D02*
Y630D01*
X665Y800D02*
X615D01*
X665Y920D02*
X580D01*
X560Y900*
X470*
X450Y880*
Y820*
X665Y1025D02*
X585D01*
X555Y995*
Y950*
X540Y935*
X455*
X400Y880*
Y820*
X735Y800D02*
X735Y750D01*
X715Y730*
X625*
X535Y820*
X500*
X735Y920D02*
Y800D01*
Y1025D02*
Y920D01*
D02*
D24*
X375Y910D03*
X400Y655D03*
X450Y730D03*
X550Y630D03*
X615Y800D03*
D02*
D77*
X350Y820D03*
Y1030D03*
X400Y820D03*
Y1030D03*
X450Y820D03*
Y1030D03*
X500Y820D03*
Y1030D03*
D02*
D78*
X665Y800D03*
Y920D03*
Y1025D03*
X735Y800D03*
Y920D03*
Y1025D03*
D02*
D79*
X350Y130D03*
X0Y0D02*
M02*
